# xmcd
#
# Track frame offsets: 
#        150
#        16014
#        29141
#        47828
#        64468
#        85795
#        99982
#        110746
#        122953
#        138920
#        153765
#        174619
#
# Disc length: 2562 seconds
#
# Revision: 0
# Processed by: cddbd v1.4PL0 Copyright (c) Steve Scherf et al.
# Submitted via: ExactAudioCopy v0.95a3
#
DISCID=9f0a000c
DTITLE=Little Mike and The Tornadoes - Payday
DYEAR=1992
DGENRE=Blues
TTITLE0=I should have known better
TTITLE1=Stick with me
TTITLE2=Payday
TTITLE3=What about love
TTITLE4=Care of the blues
TTITLE5=85 miles an hour
TTITLE6=Taylor made
TTITLE7=Been a fool too long
TTITLE8=Walkin' the floor
TTITLE9=Message machine
TTITLE10=Money
TTITLE11=Shane's stomp
EXTD=
EXTT0=
EXTT1=
EXTT2=
EXTT3=
EXTT4=
EXTT5=
EXTT6=
EXTT7=
EXTT8=
EXTT9=
EXTT10=
EXTT11=
PLAYORDER=
